<?xml version="1.0" encoding="UTF-8"?>
<svg width="512" height="512" viewBox="0 0 512 512" fill="none" xmlns="http://www.w3.org/2000/svg">
  <!-- Background -->
  <defs>
    <radialGradient id="bg" cx="50%" cy="50%" r="70%">
      <stop offset="0%" stop-color="#111111"/>
      <stop offset="100%" stop-color="#0a0a0a"/>
    </radialGradient>
    <linearGradient id="gold" x1="0" y1="0" x2="1" y2="1">
      <stop offset="0%" stop-color="#fbbf24"/>
      <stop offset="100%" stop-color="#f59e0b"/>
    </linearGradient>
    <filter id="softGlow" x="-50%" y="-50%" width="200%" height="200%">
      <feGaussianBlur stdDeviation="6" result="blur"/>
      <feMerge>
        <feMergeNode in="blur"/>
        <feMergeNode in="SourceGraphic"/>
      </feMerge>
    </filter>
  </defs>

  <rect width="512" height="512" rx="96" fill="url(#bg)"/>

  <!-- Outer ring -->
  <circle cx="256" cy="256" r="184" stroke="url(#gold)" stroke-width="14" opacity="0.9"/>

  <!-- Card silhouette (tilted) -->
  <g transform="translate(256,256) rotate(-10)">
    <rect x="-96" y="-128" width="192" height="256" rx="20" fill="#0f0f0f" stroke="#fbbf24" stroke-opacity="0.35" stroke-width="6"/>
    <!-- Data bars -->
    <rect x="-64" y="-80" width="128" height="12" rx="6" fill="url(#gold)" opacity="0.9"/>
    <rect x="-64" y="-48" width="96" height="12" rx="6" fill="url(#gold)" opacity="0.75"/>
    <rect x="-64" y="-16" width="72" height="12" rx="6" fill="url(#gold)" opacity="0.6"/>
    <!-- Monogram M (forge feel) -->
    <path d="M -60 44 L -60 84 L -44 84 L -22 60 L 0 84 L 22 60 L 44 84 L 60 84 L 60 44 L 44 44 L 22 64 L 0 44 L -22 64 L -44 44 Z" fill="url(#gold)" filter="url(#softGlow)"/>
  </g>

  <!-- Spark -->
  <g transform="translate(372,140)">
    <path d="M0 -10 L3 -3 L10 0 L3 3 L0 10 L-3 3 L-10 0 L-3 -3 Z" fill="#fbbf24" opacity="0.9"/>
  </g>

  <!-- Subtle inner glow -->
  <circle cx="256" cy="256" r="156" fill="none" stroke="#fbbf24" stroke-opacity="0.15" stroke-width="24"/>

  <title>MTGTools Discord Icon</title>
</svg>


