<?xml version="1.0" encoding="UTF-8"?>
<svg width="512" height="512" viewBox="0 0 512 512" xmlns="http://www.w3.org/2000/svg">
  <!-- MTGTools Discord Icon - The Forge Mark -->
  
  <!-- Definitions -->
  <defs>
    <!-- Gradient -->
    <linearGradient id="forgeGradient" x1="0%" y1="0%" x2="100%" y2="100%">
      <stop offset="0%" style="stop-color:#fbbf24;stop-opacity:1" />
      <stop offset="100%" style="stop-color:#f59e0b;stop-opacity:1" />
    </linearGradient>
    
    <!-- Glow Filter -->
    <filter id="glow">
      <feGaussianBlur stdDeviation="4" result="coloredBlur"/>
      <feMerge>
        <feMergeNode in="coloredBlur"/>
        <feMergeNode in="SourceGraphic"/>
      </feMerge>
    </filter>
  </defs>
  
  <!-- Black Background -->
  <rect width="512" height="512" fill="#000000"/>
  
  <!-- The Forge Mark -->
  <g id="forgeIcon" transform="translate(256, 256)">
    
    <!-- Left stroke (tool/hammer) -->
    <path d="
      M -120,-140
      L -100,-140
      L -60,-60
      L -40,0
      L -60,20
      L -140,20
      L -140,0
      L -120,-60
      Z
    " fill="url(#forgeGradient)" filter="url(#glow)"/>
    
    <!-- Right stroke (data bars) -->
    <g id="dataBars">
      <!-- Base stroke -->
      <path d="
        M 120,-140
        L 100,-140
        L 60,-60
        L 40,0
        L 60,20
        L 140,20
        L 140,0
        L 120,-60
        Z
      " fill="url(#forgeGradient)" opacity="0.3"/>
      
      <!-- Data bar overlays -->
      <rect x="70" y="-120" width="15" height="140" fill="#fbbf24"/>
      <rect x="90" y="-100" width="15" height="120" fill="#fbbf24"/>
      <rect x="110" y="-80" width="15" height="100" fill="#f59e0b"/>
      <rect x="130" y="-60" width="10" height="80" fill="#f59e0b"/>
    </g>
    
    <!-- Valley/Anvil connection -->
    <path d="
      M -40,0
      L 0,-80
      L 40,0
      L 40,20
      L -40,20
      Z
    " fill="url(#forgeGradient)" filter="url(#glow)"/>
    
    <!-- Anvil base -->
    <rect x="-140" y="20" width="280" height="20" fill="#fbbf24" rx="2"/>
    
  </g>
  
  <!-- Optional: Subtle overlay pattern for texture -->
  <g opacity="0.1">
    <pattern id="dots" x="0" y="0" width="4" height="4" patternUnits="userSpaceOnUse">
      <circle cx="2" cy="2" r="0.5" fill="#fbbf24"/>
    </pattern>
    <rect width="512" height="512" fill="url(#dots)"/>
  </g>
  
</svg>